<?xml version="1.0" encoding="UTF-8"?>
<svg id="Blue" xmlns="http://www.w3.org/2000/svg" xmlns:xlink="http://www.w3.org/1999/xlink" version="1.1" viewBox="0 0 48 45.9">
  <!-- Generator: Adobe Illustrator 29.3.1, SVG Export Plug-In . SVG Version: 2.1.0 Build 151)  -->
  <defs>
    <style>
      .st0 {
        fill: #61ADDF;
      }
    </style>
  </defs>
  <path class="st0" d="M26.7,41.9s0,0,0,0c-.8.2-1.7.3-2.5.3s-1.6,0-2.4-.3c0,0,0,0,0,0-.9-1.4-1.6-3.1-1.9-4.9,0-.2-.2-.4-.4-.5-.2,0-.3.1-.4.3-.2,1.3-.2,2.5,0,3.8-1.5-4.2-2.4-7.9-2.6-12.2,0-.8,0-1.7.1-2.5.2-.1.4-.3.5-.4,0,.7,0,1.3.1,1.9.2,1.8.5,3.6,1,5.4,0,.2.2.3.3.3,0,0,0,0,0,0,.2,0,.3-.3.3-.5-.2-2.5,0-5,.4-7.4,0-.4.1-.7.2-1.1,1.4-.6,2.9-1,4.5-1s3.1.3,4.5,1c0,.4.2.7.2,1.1.4,2.5.6,4.9.4,7.5,0,.2.1.5.3.5,0,0,0,0,0,0,.2,0,.3-.1.3-.3.5-1.8.8-3.6,1-5.4,0-.6.1-1.3.1-2,.2.1.4.3.6.4,0,.8.1,1.7.1,2.5,0,4.1-.9,8.1-2.4,11.9.2-1.2.2-2.3,0-3.5,0-.2-.2-.3-.4-.3-.2,0-.3.2-.4.5-.3,1.8-.9,3.6-1.9,4.9h0ZM31,17.3c0,1.1-1.1,1.5-2.7,2.6-1.2.7-2.7,2.3-4.3,2.3s-3.1-1.6-4.3-2.4c-1.7-1-2.7-1.4-2.7-2.6,0-1.9,3.1-2.1,7-2.1,3.9,0,7,.2,7,2.1ZM23.6,16.2c-1.6-.2-3-.2-4.5,0-1.6.2-.5,1.1-.2,1.2.8.3,3-.7,4.6-1.1.2,0,.3-.2.1-.2ZM9.3,3.2c-1.7,0-3.2.8-4.2,1.9,1.9-.5,3.6.3,3.6.3-3.1.2-3.4,3.8-3.4,3.8,2.2-2.3,5.5-1.6,5.5-1.6-2.6,1.5-3.1,3.5-3.3,4.6,1.3-1.3,2.5-1.7,4.2-2.3,0,0,1-1.4,2.7-3-.6-2.2-2.7-3.9-5.2-3.9h0ZM46.6,26.2h-.6c0,.5,0,1.1.1,1.6,0,1.1,0,2.2-.1,3.3-.1,1.1-.3,2.2-.6,3.3-.3,1.1-.8,2.2-1.6,3.3l-.9,1.1-1.1-.9c-.3-.3-.7-.6-1-.9-1.6,1.6-3.4,2.8-5.4,3.9-1.7.9-3.6,1.6-5.5,2-1.7,2-3.7,3.1-5.9,3.1-2.1,0-4.2-1.1-5.9-3.1-1.9-.4-3.8-1.1-5.5-2-2-1-3.8-2.3-5.4-3.9-.3.3-.7.6-1,.9l-1.1.9-.9-1.1c-.8-1-1.3-2.2-1.6-3.3-.3-1.1-.5-2.2-.6-3.3-.1-1.1-.1-2.2-.1-3.3,0-.5,0-1.1.1-1.6h-.6S0,26.3,0,26.3v-1.4c0-1.1.2-2.2.5-3.3.3-1,.7-2,1.2-3,.5-1,1-1.9,1.7-2.7.3-.4.7-.9,1-1.3,0,0,0,0,0,0-.5-.5-1-1.1-1.4-1.7-.7-1.1-1.1-2.4-1.3-3.6,0-.3,0-.6,0-1,0-.3,0-.6,0-.9,0-.6.2-1.3.4-1.9.4-1.2,1.1-2.3,2-3.2.9-.9,2-1.6,3.2-2,1.2-.4,2.5-.5,3.8-.4.6,0,1.3.2,1.9.5.6.2,1.2.5,1.7.9.6.4,1.2.9,1.7,1.5.5-.4,3.4-3.4,7.4-1.5,3.6-2,6.5.9,7.4,1.5.5-.6,1.1-1.1,1.7-1.5.5-.4,1.1-.7,1.7-.9.6-.2,1.2-.4,1.9-.5,1.3-.2,2.6,0,3.8.4,1.2.4,2.3,1.1,3.2,2,.9.9,1.6,2,2,3.2.2.6.4,1.2.4,1.9,0,.3,0,.6,0,.9,0,.3,0,.6,0,1-.1,1.3-.6,2.5-1.3,3.6-.4.6-.8,1.2-1.4,1.7,0,0,0,0,0,0,.4.4.7.8,1,1.3.6.9,1.2,1.8,1.7,2.7.5,1,.9,2,1.2,3,.3,1,.5,2.1.5,3.3v1.4s-1.4,0-1.4,0ZM16.5,40.5c-1.8-3.2-2.8-7.4-2.8-11.8-.5-.1-1.1-.2-1.6-.4-.1,0-.3,0-.4-.1-2.7-1-4.6-3.7-4.6-6.7,0-2.1.9-4.1,2.4-5.4.4-.4.9-.6,1.2-1.1.3-.6.5-1.2.7-1.8.8-1.8,2.3-3.1,4.2-3.7.1,0,.3,0,.4-.1.3,0,.7-.1,1-.1.1,0,.2,0,.3,0,1.6-.1,3.2.4,4.8.8s3.7.2,5.4-.3c4.5-1.4,1.1-6.5-1-6.2s-2.7,5.4-2.7,5.4h0s0,0,0,0c0,0-.8-5.4-2.7-5.4-2.4,0-5.6,3.6-5.6,3.6l-.6-1.5c-.3-.9-.9-1.7-1.6-2.3-.4-.3-.8-.6-1.2-.8-.4-.2-.9-.4-1.4-.5-1-.2-2-.2-2.9.1-1,.3-1.8.8-2.6,1.5-.7.7-1.3,1.6-1.6,2.5-.2.5-.2,1-.3,1.5,0,.3,0,.5,0,.7,0,.2,0,.5,0,.7.3,1.5,1.1,3.2,5.3,5.3l-1.6,1.3c-.3.2-.6.5-.9.9-.3.3-.6.7-.8,1-.5.7-1,1.5-1.4,2.3-.4.8-.7,1.7-1,2.5-.1.4-.2.8-.3,1.1.2,0,.4,0,.6,0l1.8-.2-.3,1.8c-.2.9-.3,1.9-.3,2.9,0,1,0,2,0,2.9,0,1,.3,1.9.5,2.8.1.4.2.7.4,1.1.2-.2.5-.4.7-.6l1-.9.9,1c1,1.2,3.8,4.3,8.1,6.3ZM18.1,12c-.2,0-.4,0-.8,0-1.1,0-2.7.3-3.9,1.5-.5.6-.6.6-.7.7,0,0,0,0-.1.1h0c.2,0,.3,0,.4.1,0,0,0,0,0,0,.2.2.7.9,1.5.9s.4,0,.6-.1c.9-.3,2.3-2.9,2.9-3.3ZM24,44.6c1.1,0,2.3-.4,3.3-1.2,0,0,0,0,0,0,.4-.4,1.3-1.2,1.8-1.7.4-.5.8-1.1,1.1-1.7,1.8-3.1,2.7-7.2,2.7-11.6,0-4.2-.1-8.6-1.4-11.7-1.3-3.1-3.7-4.5-7.5-4.5-3.8,0-6.2,1.4-7.5,4.5-1.3,3.1-1.4,7.5-1.4,11.7,0,4.4,1,8.5,2.7,11.6.3.5.6,1,.9,1.4,0,0,0,0,0,0,.2.2.4.5.6.8,1.4,1.5,3,2.4,4.6,2.4ZM35.8,14.4c0,0,0,0-.1-.1,0-.1-.1-.2-.7-.7-1.2-1.2-2.8-1.5-3.9-1.5s-.6,0-.8,0c.3.2.6.7,1,1.3.6.8,1.2,1.7,1.9,2,.2,0,.4.1.6.1.8,0,1.3-.6,1.5-.9,0,0,0,0,0,0,0,0,.2-.1.4-.1h0ZM39.1,5.5s1.7-.9,3.6-.3c-1-1.2-2.5-1.9-4.2-1.9-2.5,0-4.6,1.6-5.2,3.9,1.7,1.5,2.7,3,2.7,3,1.7.5,2.9,1,4.2,2.3-.2-1.1-.7-3.1-3.3-4.6,0,0,3.3-.7,5.5,1.6,0,0-.3-3.6-3.4-3.8Z"/>
</svg>